<svg width="29" height="30" viewBox="0 0 29 30" fill="none" xmlns="http://www.w3.org/2000/svg">
<path d="M13.5746 2.4444C13.5884 2.86098 13.7664 3.25517 14.0699 3.5409C14.3733 3.82663 14.7775 3.98066 15.1942 3.96937L23.2437 3.6826L1.15869 27.1374C0.87185 27.4421 0.717771 27.8482 0.730352 28.2664C0.742932 28.6846 0.921141 29.0807 1.22577 29.3676C1.53041 29.6544 1.93651 29.8085 2.35475 29.7959C2.77298 29.7833 3.16909 29.6051 3.45593 29.3005L25.5301 5.85716L25.773 13.9303C25.7784 14.1385 25.825 14.3436 25.91 14.5337C25.9951 14.7238 26.1169 14.8952 26.2686 15.038C26.4202 15.1808 26.5986 15.2921 26.7935 15.3656C26.9884 15.4391 27.1959 15.4732 27.404 15.4661C27.8206 15.4524 28.2148 15.2743 28.5005 14.9709C28.7862 14.6674 28.9403 14.2632 28.929 13.8466L28.6775 5.11516C28.639 3.8615 28.1045 2.67437 27.1913 1.81455C26.2782 0.954722 25.0611 0.49251 23.8073 0.529441L15.0996 0.824849C14.683 0.83862 14.2888 1.01667 14.0031 1.32012C13.7174 1.62357 13.5633 2.02776 13.5746 2.4444Z" fill="#000"/>
</svg>
